# xmcd CD database file
#
# Track frame offsets:
#	150
#	14045
#	27812
#	41060
#	54212
#	68375
#	80600
#	93762
#	106225
#	120512
#	133637
#	145087
#	157637
#	169837
#	182312
#	197310
#	210650
#	223900
#	238422
#	252725
#	266212
#	279937
#	291622
#	304110
#	316612
#	329662
#
# Disc length: 4575 seconds
#
# Revision: 0
# Processed by: cddbd v1.5PL3 Copyright (c) Steve Scherf et al.
# Submitted via: CDex 1.50
#
DISCID=7411dd1a
DTITLE=Django Reinhardt - SWINGIN' WITH DJANGO - The Very Best Of Django Reinhardt
DYEAR=1900
DGENRE=Jazz
TTITLE0=DJANGOLOGY
TTITLE1=IT DON'T MEAN A THING
TTITLE2=I GOT RHYTHM
TTITLE3=HONEYSUCKLE ROSE
TTITLE4=SWEET GEORGIA BROWN
TTITLE5=NIGHT AND DAY
TTITLE6=MY SWEET
TTITLE7=SOUVENIRS
TTITLE8=DAPHNE
TTITLE9=BILLETS DOUX
TTITLE10=SWING FROM PARIS
TTITLE11=PLEASE BE KIND
TTITLE12=IMPROVISATION No.2
TTITLE13=HUNGARIA
TTITLE14=SWING 39
TTITLE15=H.C.Q. STRUT
TTITLE16=DON'T WORRY 'BOUT ME
TTITLE17=THE MAN I LOVE
TTITLE18=LOVE'S MELODY
TTITLE19=BELLEVILLE
TTITLE20=NUAGES
TTITLE21=PECHE A LA MOUCHE
TTITLE22=BABIK (BI-BOP)
TTITLE23=SWING 48
TTITLE24=BLUES FOR BARCLAY (take 2)
TTITLE25=GIPSY WITH A SONG (take 2)
EXTD=
EXTT0=
EXTT1=
EXTT2=
EXTT3=
EXTT4=
EXTT5=
EXTT6=
EXTT7=
EXTT8=
EXTT9=
EXTT10=
EXTT11=
EXTT12=
EXTT13=
EXTT14=
EXTT15=
EXTT16=
EXTT17=
EXTT18=
EXTT19=
EXTT20=
EXTT21=
EXTT22=
EXTT23=
EXTT24=
EXTT25=
PLAYORDER=
